<?xml version="1.0" encoding="utf-8"?>
<!-- Generator: Adobe Illustrator 24.2.0, SVG Export Plug-In . SVG Version: 6.00 Build 0)  -->
<svg version="1.1" id="圖層_1" xmlns="http://www.w3.org/2000/svg" xmlns:xlink="http://www.w3.org/1999/xlink" x="0px" y="0px"
	 viewBox="0 0 159.72 25.01" style="enable-background:new 0 0 159.72 25.01;" xml:space="preserve">
<style type="text/css">
	.st0{fill:#FFFFFF;}
	.st1{fill:#E61F12;}
</style>
<polygon id="XMLID_987_" class="st0" points="126.95,5.95 133.98,5.95 135.21,3.17 128.23,3.17 122.1,3.17 119.08,3.17 
	110.52,21.77 115.36,21.77 119.68,21.77 127.52,21.77 128.74,18.99 120.96,18.99 123.55,13.35 129.06,13.35 130.25,10.57 
	124.83,10.57 "/>
<polygon id="XMLID_986_" class="st0" points="117.94,3.21 113.12,3.21 102.55,10.93 106.12,3.17 96.97,3.17 88.42,21.77 
	97.56,21.77 100.43,15.55 100.61,21.77 109.1,21.77 108.83,10.33 "/>
<polygon id="XMLID_985_" class="st0" points="159.52,3.21 154.71,3.21 145.57,11.47 145.12,3.17 135.97,3.17 136.62,15.17 
	136.64,15.17 133.66,21.77 142.82,21.77 145.44,15.95 "/>
<path id="XMLID_982_" class="st0" d="M62.5,3.17h-3.51l-13.73,18.6h3.52l2.37-3.22h6.38l-0.38,3.23h9.15l2.19-18.6L62.5,3.17
	L62.5,3.17z M57.86,15.77H53.2l5.54-7.51L57.86,15.77z"/>
<path id="XMLID_981_" class="st0" d="M88.4,14.72c0,0-0.24-1.66-1.94-2.74c0,0-0.29-0.2-0.71-0.42c-0.31-0.15-0.66-0.33-0.87-0.44
	c-0.29-0.15-1.73-0.79-1.73-0.79s-1.66-0.43-1.26-2.32c0,0,0.07-1.69,2.63-1.76c0,0,1.7,0.07,2.05,0.88c0,0,0.44,0.76-0.07,2.64
	h5.13c0,0,0.42-1.04,0.3-2.42c0,0,0.14-3.44-4.1-4.1c0,0-5.82-0.41-9.45,0.69c0,0-5.09,1.1-5.88,4.37c0,0-0.94,2.95,2.87,4.54
	c0,0,1.98,0.82,3,1.59c0,0,2.01,1.28,1.94,2.64c0,0,0.37,2.1-2.98,2.21c0,0-2.43-0.01-2.88-1.76c0,0-0.11-1.02,0.34-2.19h-5.42
	c0,0-0.56,1.12-0.74,2.64c0,0-0.09,2.8,3.15,3.51c0,0,7.47,1.21,12.59-0.95C84.38,20.53,88.95,19.12,88.4,14.72z"/>
<path id="XMLID_979_" class="st1" d="M22.26,19.53l5.54,4.33c1.01-0.27,2-0.6,2.96-0.97l-6.41-5L22.26,19.53z"/>
<path id="XMLID_978_" class="st1" d="M25.51,16.99l6.76,5.27c0.89-0.39,1.74-0.82,2.55-1.28l-7.22-5.62L25.51,16.99z"/>
<path id="XMLID_977_" class="st1" d="M16.09,24.35c1.58,0.31,3.2,0.48,4.79,0.48c1.7,0,3.43-0.2,5.14-0.55l-4.92-3.84L16.09,24.35z"
	/>
<polygon id="XMLID_976_" class="st1" points="24.35,11 26.51,9.31 24.42,7.69 22.26,9.38 "/>
<path id="XMLID_975_" class="st1" d="M14.58,15.35l-7.31,5.7c0.8,0.46,1.65,0.9,2.54,1.29l6.86-5.35L14.58,15.35z"/>
<polygon id="XMLID_974_" class="st1" points="19,11.91 21.1,13.54 23.18,11.91 21.1,10.28 "/>
<path id="XMLID_973_" class="st1" d="M17.84,17.89l-6.51,5.08c0.96,0.37,1.95,0.69,2.96,0.96l5.64-4.4L17.84,17.89z"/>
<path id="XMLID_972_" class="st1" d="M11.26,12.76l-7.48,5.82c0.66,0.58,1.39,1.13,2.19,1.66l7.44-5.8L11.26,12.76z"/>
<path id="XMLID_971_" class="st1" d="M21.1,3.29l0.44,0.34l17.89,13.93c1.64-1.65,2.62-3.4,2.62-5.07
	c0-5.61-11.44-12.34-21.41-12.34S0.2,6.87,0.2,12.49c0,1.67,0.95,3.44,2.55,5.1L20.66,3.63L21.1,3.29z"/>
<polygon id="XMLID_970_" class="st1" points="22.26,14.45 24.35,16.08 26.44,14.45 24.35,12.81 "/>
<polygon id="XMLID_969_" class="st1" points="19,16.99 21.1,18.62 23.19,16.99 21.1,15.36 "/>
<polygon id="XMLID_968_" class="st1" points="23.26,6.78 21.1,5.1 18.93,6.78 21.1,8.47 "/>
<path id="XMLID_967_" class="st1" d="M30.93,12.75l-2.16,1.69l7.37,5.74c0.81-0.52,1.55-1.07,2.23-1.64L30.93,12.75z"/>
<polygon id="XMLID_963_" class="st1" points="27.68,10.22 25.51,11.91 27.6,13.54 29.77,11.85 "/>
<polygon id="XMLID_962_" class="st1" points="19.93,9.38 17.77,7.7 15.68,9.32 17.84,11 "/>
<polygon id="XMLID_961_" class="st1" points="14.52,10.23 12.43,11.85 14.59,13.54 16.68,11.91 "/>
<polygon id="XMLID_960_" class="st1" points="17.84,12.81 15.75,14.45 17.84,16.08 19.93,14.45 "/>
</svg>
